<?xml version="1.0" encoding="utf-8"?>
<!-- Generator: Adobe Illustrator 25.4.1, SVG Export Plug-In . SVG Version: 6.00 Build 0)  -->
<svg version="1.1" id="Layer_1" xmlns="http://www.w3.org/2000/svg" xmlns:xlink="http://www.w3.org/1999/xlink" x="0px" y="0px"
	 viewBox="0 0 258 258" style="enable-background:new 0 0 258 258;" xml:space="preserve">
<style type="text/css">
	.st0{fill:#E8EAED;}
	.st1{clip-path:url(#SVGID_00000017495151377987566600000005993697255155159944_);}
	.st2{fill:#333333;}
	.st3{fill:#FFD252;}
	.st4{fill:#FFFFFF;}
</style>
<g>
	<circle class="st0" cx="129" cy="129" r="129"/>
</g>
<g>
	<defs>
		<rect id="SVGID_1_" x="46.1" y="34.8" width="179.5" height="179.5"/>
	</defs>
	<clipPath id="SVGID_00000101797520744557977500000003980684859006933403_">
		<use xlink:href="#SVGID_1_"  style="overflow:visible;"/>
	</clipPath>
	<g style="clip-path:url(#SVGID_00000101797520744557977500000003980684859006933403_);">
		<g>
			<path class="st2" d="M146.5,132.7c12.7,0,23-10.3,23-23s-10.3-23-23-23s-23,10.3-23,23C123.6,122.4,133.9,132.7,146.5,132.7z"/>
		</g>
		<g>
			<path class="st3" d="M145.5,177.1c19.9-21.2,21.5-52.2,3.5-69c-18-16.9-48.7-13.4-68.7,7.9c-19.9,21.2-21.5,52.2-3.5,69
				C94.9,201.9,125.6,198.3,145.5,177.1z"/>
			<path class="st2" d="M104.9,197.3c-11.2,0-21.4-3.9-29.1-11.1c-9.1-8.5-13.7-20.6-13-34.1c0.7-13.4,6.5-26.6,16.4-37.2
				c20.5-21.9,52.3-25.4,71-8c18.6,17.5,17.1,49.5-3.5,71.3l-1.2-1.1l1.2,1.1c-9.9,10.6-22.7,17.2-36.1,18.7
				C108.7,197.2,106.8,197.3,104.9,197.3z M121,99c-13.7,0-28.3,6.2-39.4,18c-9.4,10-14.9,22.5-15.6,35.1
				c-0.6,12.6,3.6,23.8,12,31.6c8.3,7.8,19.8,11.4,32.3,9.9c12.6-1.4,24.7-7.7,34.1-17.7l0,0c19.3-20.6,20.9-50.5,3.6-66.8
				C140.6,102.3,131.1,99,121,99z"/>
		</g>
		<g>
			<path class="st2" d="M157.2,159.4c0,0-6.5-49.5-59.2-56.5l-12.1,7.9c0,0,48.9,12,61.7,64L157.2,159.4z"/>
			<path class="st2" d="M147.6,175.9c-0.1,0-0.1,0-0.2,0c-0.4-0.1-0.8-0.4-0.9-0.8C134,124.3,86.1,112,85.6,111.8
				c-0.4-0.1-0.7-0.4-0.8-0.9c-0.1-0.4,0.1-0.9,0.5-1.1l12.1-7.9c0.2-0.1,0.5-0.2,0.7-0.2c27.7,3.7,42.6,19.1,50.2,31.4
				c8.2,13.3,9.9,25.6,10,26.1c0,0.2,0,0.5-0.2,0.7l-9.6,15.4C148.3,175.7,147.9,175.9,147.6,175.9z M88.4,110.4
				c9.7,3.1,47.6,18,59.6,61.7l8.1-12.9c-0.3-2.2-2.4-13.3-9.7-24.9c-7.3-11.8-21.6-26.6-48.2-30.3L88.4,110.4z"/>
		</g>
		<g>
			<path class="st2" d="M132.6,187.6c0,0-16.7-45.4-62.3-57.3l-4.5,12.5c0,0,43.6,23.5,51.5,51.3L132.6,187.6z"/>
			<path class="st2" d="M117.3,195.2c-0.2,0-0.3,0-0.5-0.1c-0.3-0.1-0.5-0.4-0.6-0.7c-7.7-27-50.6-50.4-51-50.6
				c-0.5-0.3-0.7-0.8-0.5-1.3l4.5-12.5c0.2-0.5,0.7-0.8,1.3-0.7c45.6,11.8,62.8,57.5,63,57.9c0.2,0.5-0.1,1.1-0.6,1.4l-15.3,6.4
				C117.5,195.1,117.4,195.2,117.3,195.2z M67.1,142.3c6.1,3.4,42.7,24.7,50.9,50.3l13.2-5.6c-2.7-6.5-20-44.4-60.2-55.4L67.1,142.3
				z"/>
		</g>
		<g>
			<path class="st2" d="M154.9,89.8c-0.3,0-0.7-0.1-1-0.4c-0.6-0.5-0.7-1.5-0.2-2.1c0.1-0.2,13.8-16.6,4.5-25.5
				c-0.6-0.6-0.6-1.5,0-2.1s1.5-0.6,2.1,0c11.3,10.9-3.7,28.9-4.3,29.6C155.7,89.6,155.3,89.8,154.9,89.8z"/>
		</g>
		<g>
			<path class="st2" d="M166.1,102.3c-0.4,0-0.8-0.1-1-0.4c-0.6-0.6-0.6-1.5,0-2.1c0.7-0.7,18-18.2,31.4-8.9
				c0.7,0.5,0.8,1.4,0.4,2.1c-0.5,0.7-1.4,0.8-2.1,0.4c-11.3-7.9-27.3,8.3-27.5,8.5C166.9,102.1,166.5,102.3,166.1,102.3z"/>
		</g>
		<g>
			<path class="st2" d="M73.4,181.6l4.4,4.1l4.4,4.1l-6.9,2.9l-6.9,2.9l2.5-7L73.4,181.6z"/>
			<path class="st2" d="M68.5,196.1c-0.1,0-0.2,0-0.3-0.1c-0.1-0.1-0.2-0.3-0.1-0.5l4.9-14.1c0.1-0.1,0.2-0.3,0.3-0.3
				c0.2,0,0.3,0,0.4,0.1l8.8,8.3c0.1,0.1,0.2,0.3,0.1,0.4c0,0.2-0.1,0.3-0.3,0.3L68.5,196C68.6,196.1,68.5,196.1,68.5,196.1z
				 M73.6,182.4l-4.3,12.4l12.1-5.1L73.6,182.4z"/>
		</g>
		<g>
			<path class="st4" d="M134.2,136.7c0,0-23.9,62.1,21,61.5S170,150.7,134.2,136.7z"/>
			<path class="st2" d="M154.6,199.8c-10.6,0-18.3-3.4-23.1-10.2c-12.4-17.8,0.6-52,1.2-53.5c0.2-0.4,0.5-0.7,0.9-0.9s0.8-0.2,1.2,0
				c25.3,9.9,47.2,35.2,44.3,51.1c-1.1,6-6.1,13.3-23.9,13.5C155,199.8,154.8,199.8,154.6,199.8z M135.2,138.8
				c-2.4,6.8-11,34.6-1,49c4.2,6,11.2,9,21,8.8c8.6-0.1,19.2-2.1,20.8-10.9C178.5,171.7,158.1,148.4,135.2,138.8z"/>
		</g>
		<g>
			<path class="st4" d="M134.4,137c0,0,34.4,78.1,74.7,37S179.6,117.3,134.4,137z"/>
			<path class="st2" d="M184.9,187.5c-1.7,0-3.4-0.2-5-0.5c-27.1-4.9-46.2-47.6-47-49.4c-0.2-0.4-0.2-0.8,0-1.2s0.5-0.7,0.9-0.9
				c31.7-13.8,74.3-10.7,85.9,6.2c4.4,6.3,6.3,17.3-9.5,33.3C202.1,183.3,193.6,187.5,184.9,187.5z M136.6,137.8
				c3.6,7.6,21.2,41.9,43.9,46.1c9.4,1.7,18.6-2,27.5-11.1c11.2-11.5,14.4-21.6,9.1-29.3C206.5,128.3,166.3,125.5,136.6,137.8z"/>
		</g>
		<g>
			<path class="st4" d="M115.9,122c0,0-56.8,34.7-64.3-9.5C44,68.2,95.6,89.3,115.9,122z"/>
			<path class="st2" d="M76.5,136.5c-4.3,0-8.5-0.7-12.2-2.4c-7.7-3.5-12.5-10.7-14.3-21.4c-3-17.5,3.2-23.8,9-25.9
				c15.2-5.7,44,11.3,58.3,34.4c0.2,0.4,0.3,0.8,0.2,1.2c-0.1,0.4-0.4,0.8-0.7,1C115.6,124,94.9,136.5,76.5,136.5z M65.7,88.8
				c-2.1,0-4,0.3-5.7,0.9c-8.4,3.2-8.4,13.9-6.9,22.4c1.6,9.6,5.8,16,12.5,19c15.9,7.2,41.7-6.2,48-9.8
				C101.7,103.2,80,88.8,65.7,88.8z"/>
		</g>
		<g>
			<path class="st4" d="M115.5,121.9c0,0-83-19.8-49.8-66.8C98.8,8,126.8,73.8,115.5,121.9z"/>
			<path class="st2" d="M115.5,123.5c-0.1,0-0.2,0-0.4,0C113.2,123,67.8,112,58,86.2c-3.8-10-1.6-20.7,6.3-32
				c12.9-18.4,24-18.5,31.1-15.3c18.8,8.4,29.5,49.7,21.6,83.4c-0.1,0.4-0.4,0.8-0.7,1C116.1,123.4,115.8,123.5,115.5,123.5z
				 M88.4,40.5c-6.9,0-14.2,5.2-21.4,15.5c-7.3,10.4-9.3,20.1-5.9,29c8.2,21.6,45.1,32.7,53.2,34.9c6.7-31.5-3.2-70.5-20.2-78.1
				C92.3,40.9,90.4,40.5,88.4,40.5z"/>
		</g>
	</g>
</g>
</svg>
